<?xml version="1.0" encoding="utf-8"?>
<!-- Generator: Adobe Illustrator 26.0.3, SVG Export Plug-In . SVG Version: 6.00 Build 0)  -->
<svg version="1.1" id="Слой_1" xmlns="http://www.w3.org/2000/svg" xmlns:xlink="http://www.w3.org/1999/xlink" x="0px" y="0px"
	 viewBox="0 0 1002 614" style="enable-background:new 0 0 1002 614;" xml:space="preserve">
<style type="text/css">
	.st0{fill:#FFECC6;fill-opacity:0.5;}
	.st1{fill:#FFE984;}
</style>
<path class="st0" d="M934.1,0c77.6,101.3,80,338.4,50.2,417.4S807.9,714.2,482.6,560.2C359.4,501.9,71.2,762.9,0,467.1V268.8L1.9,0
	H934.1z"/>
<path class="st1" d="M68.3,430.4C30.4,438.9,0,424.3,0,351.3V0h924.2C985,24,985,174.5,985,198.9c0,0,0,165.5-131.5,231.4
	C722,496.3,665,312.6,568.1,400.6c-97.5,88.5-159.3,28.1-194.3,0c-34.8-14-109.5-81.7-158.5-81.7
	C177.6,308.7,126.3,417.4,68.3,430.4z"/>
</svg>
