<svg width="100" height="100" viewBox="0 0 57 60" fill="none" xmlns="http://www.w3.org/2000/svg">
<path d="M15.4308 13.6019L14.3974 14.472L9.71973 14.1515L9.17001 14.6145L11.3882 17.0068L10.5828 17.6851L5.72002 12.4385L6.52452 11.7608L8.70618 14.1141C8.8361 14.0022 8.95598 13.8802 9.06431 13.7498C9.16703 13.625 9.24667 13.4859 9.29938 13.3391C9.36157 13.1758 9.39772 13.0068 9.4066 12.8381C9.4177 12.6318 9.39717 12.4279 9.34566 12.2327C9.32224 12.1394 9.2878 12.0239 9.24725 11.889C9.20671 11.7541 9.16004 11.611 9.11091 11.4647C8.93726 10.9174 8.90246 10.4593 9.00649 10.0905C9.11052 9.72163 9.40816 9.33111 9.8994 8.91888L10.2203 8.64849L10.7986 9.27247L10.4608 9.55618C10.3088 9.67697 10.1745 9.81659 10.0621 9.97054C9.98336 10.0896 9.93252 10.2214 9.91337 10.3561C9.8919 10.4987 9.89983 10.6412 9.93669 10.7757C9.97348 10.9283 10.0259 11.0997 10.0916 11.2906C10.22 11.6208 10.289 11.9735 10.2959 12.3352C10.2788 12.6321 10.2003 12.9285 10.0649 13.2078L15.4308 13.6019Z" fill="black"/>
<path d="M21.4161 10.5472L20.5215 10.9626L17.9654 5.46943L15.5377 6.59813C15.675 6.91834 15.8066 7.23283 15.9307 7.54418C16.0547 7.85554 16.1675 8.1303 16.2698 8.37146C16.5229 8.97951 16.7114 9.48915 16.8354 9.90038C16.9444 10.2416 17.0207 10.593 17.0635 10.9507C17.0935 11.1932 17.0871 11.4405 17.0446 11.6853C17.0058 11.8833 16.9426 12.0776 16.8563 12.264C16.7793 12.4364 16.669 12.5951 16.5315 12.7313C16.3858 12.8669 16.2174 12.978 16.034 13.0594C15.97 13.0885 15.8924 13.1222 15.8006 13.1599C15.7088 13.1975 15.6436 13.225 15.6074 13.2419L15.2344 12.4382L15.297 12.4089C15.3283 12.3979 15.3671 12.3828 15.414 12.3645C15.4609 12.3462 15.5058 12.3268 15.551 12.3061C15.6558 12.2581 15.7525 12.1942 15.8372 12.1171C15.9161 12.0457 15.9767 11.958 16.0137 11.8616C16.135 11.5637 16.1402 11.1641 16.0294 10.6628C15.8537 9.96349 15.623 9.28055 15.3394 8.61953C15.228 8.33897 15.075 7.96892 14.8801 7.50937C14.6853 7.04982 14.5057 6.62975 14.3413 6.24916L18.5075 4.31176L21.4161 10.5472Z" fill="black"/>
<path d="M27.3248 2.29312L25.5898 8.51932C25.5308 8.74722 25.4323 8.96463 25.2986 9.1623C25.1855 9.3291 25.043 9.47587 24.8778 9.59577C24.7381 9.69481 24.5853 9.77496 24.4236 9.83394C24.2804 9.88595 24.1329 9.92553 23.9829 9.95218C23.8557 9.97381 23.7006 9.99466 23.5176 10.0147L23.1633 10.0544L23.0206 9.20554L23.0875 9.19403L23.3332 9.18037C23.4622 9.17218 23.5908 9.15663 23.7182 9.13379C23.7813 9.12217 23.8693 9.10117 23.9824 9.0708C24.0862 9.04523 24.186 9.00543 24.2786 8.95264C24.3821 8.89166 24.4746 8.81439 24.5519 8.72414C24.6484 8.60893 24.7158 8.47404 24.7489 8.33037L24.86 7.93821L21.3577 3.33938L22.4038 3.15431L25.16 6.81665L26.3449 2.45872L27.3248 2.29312Z" fill="black"/>
<path d="M34.5562 8.23207C34.5094 8.55262 34.3891 8.85652 34.2044 9.12084C34.0363 9.36168 33.8125 9.55889 33.5506 9.69674C33.2617 9.8512 32.9438 9.94851 32.6143 9.98335C32.2094 10.0105 31.8012 9.98213 31.4012 9.89904L28.8065 9.4276L29.9329 2.40316L34.7241 3.27324L34.5916 4.10379L30.7519 3.40687L30.4437 5.33224L32.1159 5.63653C32.516 5.70208 32.9105 5.8021 33.2947 5.93543C33.6033 6.05307 33.8802 6.24259 34.1012 6.48749C34.311 6.71 34.4593 6.98143 34.5314 7.2746C34.6044 7.59064 34.6129 7.91621 34.5562 8.23207ZM33.5585 8.07143C33.5968 7.85845 33.5898 7.63878 33.5381 7.42618C33.4864 7.23455 33.3792 7.06062 33.2297 6.92603C33.0661 6.77375 32.868 6.66272 32.653 6.6028C32.3328 6.51486 32.0087 6.44323 31.6819 6.3882L30.308 6.13821L29.8872 8.80572L31.237 9.0517C31.5648 9.11796 31.8969 9.15737 32.2299 9.16951C32.4513 9.17252 32.6696 9.12915 32.8703 9.04227C33.0546 8.96428 33.2141 8.84021 33.3335 8.68201C33.4559 8.49968 33.5329 8.29067 33.5585 8.07143Z" fill="black"/>
<path d="M42.9112 6.69569C43.066 7.11427 43.126 7.56255 43.0873 8.01139C43.0413 8.53819 42.9075 9.05745 42.6909 9.54924C42.4886 10.0478 42.2032 10.5139 41.8461 10.9288C41.5468 11.2785 41.1768 11.5669 40.7597 11.7755C40.3611 11.9711 39.9247 12.0791 39.4831 12.0914C38.514 12.0904 37.5899 11.7548 36.8795 11.1459C36.5616 10.862 36.3179 10.51 36.1669 10.1167C36.0141 9.70115 35.9545 9.25654 35.9919 8.81123C36.0989 7.75775 36.5262 6.74692 37.2204 5.90507C37.5242 5.54812 37.8998 5.25296 38.3233 5.03829C38.7218 4.84312 39.159 4.73866 39.6001 4.73327C40.0796 4.72558 40.553 4.80612 40.9946 4.97055C41.4454 5.12569 41.8569 5.36544 42.2057 5.67615C42.519 5.95864 42.76 6.30697 42.9112 6.69569ZM41.7517 9.21082C42.1152 8.35379 42.1978 7.62112 41.9994 7.01278C41.801 6.40444 41.3606 5.97727 40.6784 5.73126C39.9867 5.4796 39.3474 5.51783 38.7606 5.84596C38.1737 6.17409 37.697 6.76405 37.3305 7.61583C36.9634 8.48346 36.8831 9.21863 37.0896 9.82135C37.2961 10.4241 37.7364 10.8483 38.4107 11.0942C39.0856 11.3372 39.7205 11.302 40.3156 10.9885C40.9107 10.6751 41.3894 10.0825 41.7517 9.21082Z" fill="black"/>
<path d="M47.135 17.318L46.1354 16.5698L45.9233 12.1557L45.3926 11.759L43.2225 14.3923L42.4426 13.8099L47.2019 8.03356L47.9818 8.61595L45.8466 11.2073C45.9747 11.3006 46.1118 11.3823 46.2561 11.4514C46.394 11.5171 46.5442 11.5573 46.6992 11.5699C46.8724 11.5881 47.0483 11.5806 47.2209 11.5475C47.4309 11.5085 47.6349 11.4405 47.8264 11.3457C47.9181 11.3005 48.0306 11.2435 48.1643 11.1715C48.2981 11.0996 48.4351 11.0229 48.5783 10.9418C49.1149 10.6513 49.5753 10.5086 49.9595 10.5138C50.3437 10.5189 50.7726 10.6995 51.2461 11.0553L51.5548 11.2904L50.9875 11.978L50.6607 11.7329C50.5203 11.6219 50.363 11.5319 50.1937 11.4658C50.0636 11.4215 49.9239 11.4061 49.7848 11.4207C49.6381 11.4349 49.4948 11.4767 49.3631 11.5435C49.2125 11.6146 49.0437 11.7047 48.8579 11.8117C48.5379 12.0109 48.1884 12.1604 47.8226 12.2544C47.5198 12.3099 47.2106 12.3084 46.9124 12.2501L47.135 17.318Z" fill="black"/>
<path d="M19.5999 28.7114C18.7963 28.6729 18.1762 29.3415 18.023 30.4109C17.9166 31.145 18.1845 31.5882 18.7258 31.5554C19.2671 31.5227 19.7905 31.4726 20.3235 31.4302C20.927 31.6537 21.0457 31.1469 20.9863 30.488C20.9406 30.0124 20.7768 29.5742 20.5235 29.2496C20.2702 28.9251 19.9434 28.7346 19.5999 28.7114Z" fill="black"/>
<path d="M30.8187 28.1273C29.3098 26.5615 27.3499 25.9586 25.1829 25.8715C23.4118 25.8009 21.6998 26.1512 20.0052 26.6225C19.2818 26.8238 18.9421 27.1896 18.8992 27.9048C18.8146 29.3003 18.0535 30.2593 16.7129 30.837C15.6508 31.2957 14.6122 31.8048 13.5583 32.2838C13.1553 32.4657 12.9298 32.7551 13.0196 33.1674C13.2328 34.1516 13.3818 35.1648 13.746 36.0987C14.3581 37.6577 15.5314 38.6932 17.3648 38.7454C18.6141 38.768 19.8488 39.0051 21.0091 39.4451C22.4304 39.9827 23.6827 40.857 24.6463 41.9845C24.9367 42.297 25.2605 42.5801 25.6124 42.8293C25.7236 42.9155 25.9756 42.9813 26.0573 42.9261C26.1235 42.8709 26.1757 42.8021 26.21 42.725C26.2443 42.648 26.2597 42.5645 26.2552 42.4809C26.2131 42.1985 26.1062 41.9283 25.942 41.6893C23.8576 38.9738 20.9856 37.6161 17.5015 37.5038C15.7508 37.4467 14.5897 35.9787 15.0529 34.348C15.1805 33.9058 15.1029 33.7122 14.5999 33.6919L14.4796 33.5496C14.6173 33.3928 14.7224 33.1751 14.8989 33.089C16.3272 32.3893 17.7617 31.7022 19.2084 31.0383C19.6104 30.8535 19.7869 30.5699 19.8491 30.1838C19.8899 29.9303 19.9185 29.6748 19.9603 29.4222C20.1439 28.3364 20.8785 27.6619 22.0008 27.4315C23.4526 27.1335 24.9085 27.0444 26.3745 27.2554C28.3375 27.5399 29.8515 28.4748 30.733 30.1945C31.5686 31.8241 31.7533 33.5893 31.6074 35.3632C31.5421 36.1587 31.2554 36.958 30.9411 37.7071C30.6473 38.4058 30.0484 38.67 29.4006 38.5413C28.664 38.3951 28.3222 37.8464 28.1069 37.2406C27.3928 35.2345 27.608 33.2612 28.3946 31.3141C28.5558 30.9274 28.6744 30.5259 28.7487 30.1161C28.7803 29.9225 28.6997 29.6186 28.5558 29.5267C28.4365 29.4512 28.1039 29.5606 27.9437 29.6815C27.7235 29.8562 27.5475 30.0754 27.4285 30.3232C26.6796 31.9093 26.2276 33.5651 26.348 35.3167C26.4307 36.5119 26.7082 37.6693 27.4703 38.6661C28.3406 39.808 29.928 40.3113 31.2146 39.2738C32.0012 38.6371 32.4225 37.8271 32.6827 36.9145C33.1326 35.3312 33.0551 33.7335 32.7541 32.1445C32.4725 30.6532 31.9114 29.2654 30.8187 28.1273Z" fill="black"/>
<path d="M42.6759 28.8662C42.0498 27.4383 40.8664 26.5018 39.5152 25.6992C38.6545 25.1886 38.2586 24.3971 38.2307 23.4556C38.207 22.6177 38.2307 21.7779 38.2242 20.938C38.2242 20.2331 37.6971 19.9683 37.0408 20.3278C36.3491 20.7074 35.61 21.0327 34.9742 21.4788C33.4132 22.5865 31.8909 23.7345 30.3707 24.8875C30.0319 25.1463 29.8425 25.5441 30.1696 25.9056C30.4966 26.2671 30.8732 25.9952 31.1593 25.7928C31.7542 25.3709 32.3051 24.8936 32.8957 24.4656C33.6692 23.9057 34.4309 23.3186 35.2625 22.8393C36.0231 22.4002 36.8827 22.515 36.8235 23.6187C36.7977 24.088 36.8235 24.5582 36.8235 25.0285C36.8235 26.1362 36.8784 26.2289 37.9972 26.5551C40.3328 27.2349 41.84 28.9719 41.8497 31.3454C41.8497 31.7684 42.0337 32.0866 42.4737 32.2457C42.9137 32.4048 43.3494 32.5357 43.7647 32.7281C44.01 32.8429 44.2047 33.0533 44.4231 33.2205L43.6786 33.6968C43.7109 33.8509 43.7539 34.1107 43.8217 34.3655C44.2434 35.9636 43.1353 37.3049 41.3946 37.323C40.8605 37.3197 40.3272 37.3622 39.8014 37.4499C37.4625 37.887 35.4271 38.8698 33.851 40.5716C33.3809 41.0802 33.0302 41.6944 32.6881 42.2916C32.6009 42.4426 32.6805 42.8152 32.8182 42.9059C32.9559 42.9965 33.312 42.923 33.482 42.8052C33.7776 42.5893 34.0392 42.3354 34.2588 42.0509C36.0435 39.8738 38.3942 38.7479 41.3183 38.6523C42.8072 38.6039 43.9798 38.0169 44.791 36.8155C45.5032 35.7612 45.855 34.6001 45.9604 33.3725C46.0615 32.1873 46.0551 32.1702 44.8566 31.7694C43.996 31.4814 43.4893 30.8993 43.174 30.136C42.9944 29.7171 42.8588 29.2831 42.6759 28.8662Z" fill="black"/>
<path d="M41.9106 46.31C43.3088 45.1388 44.5357 43.7921 45.558 42.3069C48.5403 37.9847 49.6207 32.7155 48.5626 27.6521C48.1241 25.4749 47.2782 23.3936 46.0657 21.5086C44.9379 19.7752 43.5951 18.1852 41.9475 16.8694C39.4603 14.8682 36.5019 13.4754 33.3244 12.8096C30.5613 12.2269 27.6988 12.2025 24.9191 12.7378C21.967 13.2972 19.1639 14.4335 16.6849 16.0755C15.6825 16.955 14.629 17.7902 13.6874 18.7235C11.9995 20.3977 10.7163 22.3395 9.75935 24.4818C8.81183 26.5806 8.25425 28.8202 8.11187 31.0993C7.99869 32.8571 8.14089 34.6203 8.5344 36.3381C9.02074 38.4346 9.80064 40.4291 11.0118 42.2326C12.2571 44.0885 13.7184 45.7696 15.5521 47.1556C17.9926 49.0074 20.8476 50.2947 23.8965 50.9181C26.9454 51.5416 30.1067 51.4846 33.1363 50.7515C36.4397 49.9627 39.3464 48.4627 41.9106 46.31ZM13.005 42.5984C10.8064 39.6638 9.5687 36.166 9.44847 32.5471C9.32823 28.9282 10.3308 25.3508 12.3295 22.2673C14.3281 19.1839 17.2331 16.7328 20.677 15.2241C24.1209 13.7154 27.949 13.2168 31.6773 13.7914C35.4056 14.3659 38.8667 15.9879 41.6227 18.452C44.3788 20.9162 46.3061 24.112 47.161 27.6352C48.0159 31.1584 47.7599 34.8508 46.4254 38.2455C45.0909 41.6402 42.7379 44.5848 39.6639 46.7067C37.6228 48.1158 35.3142 49.1273 32.8699 49.6834C30.4255 50.2395 27.8932 50.3294 25.4177 49.9479C22.9421 49.5664 20.5718 48.721 18.442 47.46C16.3122 46.1989 14.4647 44.547 13.005 42.5984Z" fill="black"/>
</svg>
