<svg width="1005" height="339" viewBox="0 0 1005 339" fill="none" xmlns="http://www.w3.org/2000/svg">
<path fill-rule="evenodd" clip-rule="evenodd" d="M0 0V209.223C0 302.289 31.0091 320.945 69.6434 310.103C99.1788 301.814 127.01 263.187 152.25 228.156C177.62 192.945 200.372 161.367 219.605 167.885C269.601 167.885 334.706 193.192 381.365 272.179C417.792 333.846 480.174 385.089 579.604 272.179C629.05 216.031 668.316 246.631 712.018 280.689C755.665 314.704 803.737 352.168 870.797 310.103C1005 225.92 1005 14.8245 1005 14.8245C1005 11.5369 1005 6.47033 1004.93 0H0Z" fill="#FFE984"/>
</svg>
